<?xml version="1.0" encoding="utf-8"?>
<!-- Generator: Adobe Illustrator 19.2.1, SVG Export Plug-In . SVG Version: 6.00 Build 0)  -->
<svg version="1.1" id="layer" xmlns="http://www.w3.org/2000/svg" xmlns:xlink="http://www.w3.org/1999/xlink" x="0px" y="0px"
	 viewBox="0 0 652 652" style="enable-background:new 0 0 652 652;" xml:space="preserve">
<style type="text/css">
	.st0{fill:#EA502C;}
	.st1{fill:#39414D;}
</style>
<g>
	<path class="st0" d="M68.7,318c0,0-4.1,4.1,0,8.2l11.2,11.2c0,0,4.1,4.1,8.2,0l11.2-11.2c0,0,4.1-4.1,0-8.2l-11.2-11.2
		c0,0-4.1-4.1-8.2,0L68.7,318z"/>
	<path class="st1" d="M64.3,339.4L47,322l17.2-17.2c0,0,4.1-4.1,0-8.2l-6.1-6.1c0,0-4.1-4.1-8.2,0l-27.5,27.5c0,0-4.1,4.1,0,8.2
		l6.1,6.1c0,0,0,0,0,0L50,353.7c0,0,4.1,4.1,8.2,0l6.1-6.1C64.3,347.6,68.4,343.5,64.3,339.4"/>
	<path class="st1" d="M145.6,318l-6.1-6.1l-37.1-37.1c0,0-4.1-4.1-8.2,0l-6.1,6.1c0,0-4.1,4.1,0,8.2l32.9,32.9L88.2,355
		c0,0-4.1,4.1,0,8.2l6.1,6.1c0,0,4.1,4.1,8.2,0l43.1-43.1C145.6,326.2,149.7,322.1,145.6,318"/>
	<path class="st1" d="M162,322.3V322c0-17.6,13.5-32.1,32.4-32.1c9.7,0,16.3,2.8,21.6,7.4c1,0.9,1.5,2,1.5,3c0,1-0.5,2.1-1.4,3.1
		l-4.8,5.2c-1,1-2.1,1.6-3.1,1.6c-0.9,0-2-0.5-3.1-1.4c-3-2.4-6.2-3.8-10.8-3.8c-8.8,0-15,7.7-15,16.8v0.2c0,9.4,6.1,17,15.7,17
		c4.4,0,7.7-1.4,10.9-3.8c1-0.8,2.1-1.3,3.1-1.3c1,0,2.1,0.5,3.1,1.5l4.3,4.3c1.1,1.2,1.6,2.3,1.6,3.3c0,0.7-0.2,1.5-0.9,2.2
		c-5.5,5.3-12.1,8.9-22.9,8.9C175.6,354.2,162,339.9,162,322.3"/>
	<path class="st1" d="M221.5,295.4c0-2.9,1.5-4.4,4.4-4.4h8.8c2.9,0,4.4,1.5,4.4,4.4v53c0,2.9-1.5,4.4-4.4,4.4h-8.8
		c-2.9,0-4.4-1.5-4.4-4.4V295.4z"/>
	<path class="st1" d="M245.2,295.4c0-2.9,1.5-4.4,4.4-4.4h8.8c2.9,0,4.4,1.5,4.4,4.4v4.4c4-5.2,9.3-9.9,18.2-9.9
		c8.1,0,14.2,3.6,17.4,9.8c5.4-6.3,11.9-9.8,20.3-9.8c13,0,20.8,7.8,20.8,22.7v35.8c0,2.9-1.5,4.4-4.4,4.4h-8.7
		c-2.9,0-4.4-1.5-4.4-4.4v-30c0-8.3-3.7-12.6-10.2-12.6c-6.6,0-10.6,4.3-10.6,12.6v30c0,2.9-1.5,4.4-4.4,4.4H288
		c-2.9,0-4.4-1.5-4.4-4.4v-30c0-8.3-3.7-12.6-10.2-12.6c-6.6,0-10.6,4.3-10.6,12.6v30c0,2.9-1.5,4.4-4.4,4.4h-8.8
		c-2.9,0-4.4-1.5-4.4-4.4V295.4z"/>
	<path class="st1" d="M345.8,295.4c0-2.9,1.5-4.4,4.4-4.4h8.8c2.9,0,4.4,1.5,4.4,4.4v4.5c4.3-5.8,10.1-10,19.2-10
		c14.4,0,28.1,11.3,28.1,31.9v0.2c0,20.6-13.5,31.9-28.1,31.9c-9.3,0-15.1-4.3-19.2-9.2v22.1c0,2.9-1.5,4.4-4.4,4.4h-8.8
		c-2.9,0-4.4-1.5-4.4-4.4V295.4z M393.1,322v-0.2c0-10.2-6.9-17-15.1-17s-15,6.8-15,17v0.2c0,10.2,6.8,17,15,17
		S393.1,332.4,393.1,322"/>
	<path class="st1" d="M414.1,295.4c0-2.9,1.4-4.4,4.4-4.4h8.6c2.9,0,4.5,1.5,4.5,4.4v4.6c1.8-4.6,7.5-8.7,15.2-9.9
		c2.9-0.5,4.4,1.4,4.4,4.3v8.5c0,4.4-1.6,5-4.7,5.4c-11.2,1.7-14.9,11.3-14.9,21.8v18.4c0,2.9-1.6,4.4-4.5,4.4h-8.6
		c-3,0-4.4-1.5-4.4-4.4V295.4z"/>
	<path class="st1" d="M449.3,322.3V322c0-17.6,12.5-32.1,30.5-32.1c20.6,0,30.1,16,30.1,33.5v0.3c0,2.8-1.7,4.3-4.5,4.3h-38.7
		c1.7,7.9,7.3,12.1,15.1,12.1c4.6,0,8.2-1.2,11.9-3.7c1.2-0.8,2.2-1.3,3.2-1.3c0.9,0,2,0.5,2.9,1.3l3.7,3.3c1.3,1,2,2.2,2,3.3
		c0,0.8-0.5,1.6-1.2,2.3c-5.5,5.5-13,8.7-22.7,8.7C463,354.2,449.3,341.2,449.3,322.3 M492.9,317.1c-1-7.8-5.6-13.1-13-13.1
		c-7.3,0-12,5.2-13.4,13.1H492.9z"/>
	<path class="st1" d="M511.6,347.1c-1.4-0.9-2.1-2.2-2.1-3.5c0-0.8,0.3-1.7,0.9-2.6l2.8-4.3c0.9-1.5,2.1-2.2,3.5-2.2
		c0.8,0,1.7,0.3,2.6,0.9c5.5,3.2,11.1,4.9,15.8,4.9c5.1,0,7.4-1.8,7.4-4.6v-0.2c0-3.3-4.7-4.7-10.5-6.4c-0.7-0.2-1.5-0.5-2.3-0.7
		c-8.6-2.5-18.4-6.6-18.4-18.5v-0.2c0-12.5,10.1-19.6,22.6-19.6c6.4,0,13.4,1.8,19.3,4.9c1.6,0.8,2.4,2,2.4,3.3
		c0,0.8-0.3,1.7-0.8,2.6l-2.5,4.5c-0.9,1.6-2.1,2.4-3.5,2.4c-0.7,0-1.6-0.2-2.5-0.7c-4.7-2.3-9.2-3.7-12.8-3.7
		c-4.3,0-6.4,1.8-6.4,4.3v0.2c0,3.5,5.9,5.1,12.5,7.4c8.6,2.9,18.7,7,18.7,18.3v0.2c0,13.7-10.2,19.9-23.6,19.9
		C527.1,353.9,518.9,351.8,511.6,347.1"/>
	<path class="st1" d="M560.9,347.1c-1.4-0.9-2.1-2.2-2.1-3.5c0-0.8,0.3-1.7,0.9-2.6l2.8-4.3c0.9-1.5,2.1-2.2,3.5-2.2
		c0.8,0,1.7,0.3,2.6,0.9c5.5,3.2,11.1,4.9,15.8,4.9c5.1,0,7.4-1.8,7.4-4.6v-0.2c0-3.3-4.7-4.7-10.5-6.4c-0.7-0.2-1.5-0.5-2.3-0.7
		c-8.6-2.5-18.4-6.6-18.4-18.5v-0.2c0-12.5,10.1-19.6,22.6-19.6c6.4,0,13.4,1.8,19.3,4.9c1.6,0.8,2.4,2,2.4,3.3
		c0,0.8-0.3,1.7-0.8,2.6l-2.5,4.5c-0.9,1.6-2.1,2.4-3.5,2.4c-0.7,0-1.6-0.2-2.5-0.7c-4.7-2.3-9.2-3.7-12.8-3.7
		c-4.3,0-6.4,1.8-6.4,4.3v0.2c0,3.5,5.9,5.1,12.5,7.4c8.6,2.9,18.7,7,18.7,18.3v0.2c0,13.7-10.2,19.9-23.6,19.9
		C576.5,353.9,568.3,351.8,560.9,347.1"/>
	<polygon class="st1" points="609.6,291.3 607.6,291.3 607.6,289.9 613,289.9 613,291.3 611,291.3 611,296.5 609.6,296.5 	"/>
	<polygon class="st1" points="614.1,289.9 615.6,289.9 617.4,292.7 619.1,289.9 620.6,289.9 620.6,296.5 619.2,296.5 619.2,292.2 
		617.4,295 617.3,295 615.5,292.2 615.5,296.5 614.1,296.5 	"/>
</g>
</svg>
